<svg width="95" height="138" viewBox="0 0 95 138" fill="none" xmlns="http://www.w3.org/2000/svg">
<path d="M0 103.478V46.956C0 21.0229 21.0661 0 47.0524 0C73.0388 0 94.1049 21.0229 94.1049 46.956C94.1049 70.0675 80.6142 81.2437 58.5797 85.1507C54.0523 85.9534 50.2931 82.1565 50.2931 77.5676C50.2931 72.9788 54.0899 69.3734 58.5199 68.1433C71.4017 64.5661 77.6228 60.8307 77.6719 46.8467C77.6129 30.0208 63.9267 16.3991 47.0524 16.3991C30.1416 16.3991 16.4327 30.0799 16.4327 46.956V103.478C16.4327 113.32 24.4276 121.298 34.2897 121.298C41.3031 121.298 43.9124 119.024 46.8333 113.154C48.8514 109.098 52.3654 105.239 56.9032 105.239C61.4409 105.239 65.2209 108.963 64.1473 113.363C60.4929 128.34 50.4223 137.698 34.2897 137.698C15.352 137.698 0 122.377 0 103.478Z" fill="#163634"/>
</svg>
