<svg width="747" height="203" viewBox="0 0 747 203" fill="none" xmlns="http://www.w3.org/2000/svg">
<g clip-path="url(#clip0_187_334)">
<path d="M639.281 64.1558C641.186 64.1558 643.244 64.257 645.479 64.4343C646.52 64.5102 647.46 64.6368 648.349 64.7634C649.898 64.9913 650.965 66.3837 650.787 67.9281L649.187 81.1188C648.984 82.7139 647.511 83.8532 645.936 83.5747C645.149 83.4481 644.311 83.3215 643.472 83.1949C641.567 82.9417 639.535 82.8151 637.351 82.8151C633.795 82.8151 630.29 83.5494 626.861 84.9925C623.432 86.4609 620.384 88.5117 617.692 91.1701C614.999 93.8285 612.891 97.1452 611.291 101.069C609.691 104.994 608.904 109.576 608.904 114.767V165.782C608.904 167.352 607.634 168.618 606.059 168.618H591.505C589.93 168.618 588.66 167.352 588.66 165.782V68.9155C588.66 67.3458 589.93 66.0799 591.505 66.0799H602.224C603.646 66.0799 604.84 67.118 605.043 68.5105L607.354 84.3596H608.319C610.351 80.6884 612.891 77.2958 615.965 74.1817C619.013 71.0676 622.518 68.6371 626.455 66.8648C630.392 65.0925 634.659 64.2064 639.231 64.2064L639.281 64.1558Z" fill="white"/>
<path d="M373.983 152.238C373.246 150.794 371.544 150.111 369.995 150.617C367.912 151.301 365.855 151.883 363.848 152.339C358.769 153.554 352.977 154.136 346.475 154.136C336.798 154.136 329.305 151.351 323.946 145.756C318.739 140.313 315.945 132.565 315.564 122.514C315.564 122.134 315.869 121.78 316.275 121.78H378.428C381.857 121.78 384.651 118.995 384.651 115.577V110.539C384.651 101.019 382.923 92.7908 379.495 85.803C376.066 78.8406 371.062 73.4731 364.509 69.7261C357.956 65.979 350.158 64.1055 341.116 64.1055C332.074 64.1055 323.692 66.2322 316.682 70.4856C309.671 74.739 304.287 80.866 300.451 88.8412C296.641 96.8417 294.711 106.538 294.711 117.957C294.711 129.375 296.845 139.199 301.112 147.073C305.379 154.947 311.297 160.795 318.866 164.669C326.435 168.542 335.172 170.467 345.104 170.467C352.469 170.467 358.769 169.884 364.001 168.745C368.243 167.808 372.484 166.517 376.726 164.821C378.301 164.188 378.987 162.314 378.25 160.795L373.957 152.187L373.983 152.238ZM323.768 86.8157C328.086 82.1319 333.953 79.7773 341.319 79.7773C346.526 79.7773 350.818 80.942 354.197 83.2965C357.575 85.6511 360.115 88.7905 361.842 92.7148C363.493 96.4872 364.356 100.969 364.407 106.159C364.407 106.513 364.128 106.817 363.772 106.817H316.936C316.402 106.817 315.97 106.336 316.047 105.804C317.037 97.6772 319.602 91.3477 323.768 86.8411V86.8157Z" fill="white"/>
<path d="M413.25 28.0017V165.707C413.25 167.302 414.545 168.593 416.146 168.593H430.572C432.173 168.593 433.468 167.302 433.468 165.707V24.9129C433.468 23.0647 431.766 21.6976 429.963 22.0773L415.536 25.1661C414.19 25.4446 413.25 26.6346 413.25 28.0017Z" fill="white"/>
<path d="M534.229 25.6977C532.959 25.9762 532.045 27.0902 532.045 28.3814V62.4595C532.045 64.8647 532.197 67.8269 532.527 71.2955C532.832 74.7894 533.061 77.4225 533.188 79.1947H532.223C530.191 76.4097 527.727 73.8779 524.882 71.574C522.012 69.2954 518.685 67.4725 514.875 66.1559C511.065 64.8394 506.468 64.1558 501.134 64.1558C488.662 64.1558 478.63 68.6624 471.061 77.6756C463.492 86.6889 459.707 99.9302 459.707 117.45C459.707 134.97 463.466 148.338 470.959 157.225C478.477 166.112 488.383 170.542 500.727 170.542C506.061 170.542 510.684 169.833 514.57 168.441C518.456 167.048 521.834 165.175 524.679 162.82C527.549 160.466 529.988 157.833 532.019 154.921H532.781L535.702 166.542C536.007 167.757 537.099 168.618 538.369 168.618H549.494C551.018 168.618 552.237 167.377 552.237 165.884V25.2167C552.237 23.4697 550.612 22.1785 548.91 22.533L534.178 25.6977H534.229ZM532.629 120.666C532.629 131.831 530.622 140.161 526.609 145.68C522.596 151.199 515.637 153.959 505.706 153.959C497.298 153.959 490.999 150.845 486.808 144.642C482.617 138.439 480.509 129.552 480.509 118.007C480.509 106.462 482.617 97.3984 486.808 90.7904C490.999 84.2077 497.248 80.891 505.502 80.891C515.942 80.891 523.053 84.0558 526.889 90.4106C530.699 96.7654 532.604 105.88 532.604 117.805V120.666H532.629Z" fill="white"/>
<path d="M727.723 154.339H728.485C728.485 154.339 731.863 166.365 732.218 167.58C732.574 168.795 733.209 168.593 733.209 168.593L744.639 166.137C746.036 165.833 747.026 164.618 747.026 163.2V99.1453C747.026 87.2205 743.902 78.4352 737.679 72.7892C731.431 67.1433 722.033 64.333 709.435 64.333C702.171 64.333 695.364 65.1685 689.014 66.8142C683.731 68.1813 679.032 69.8523 674.892 71.8271C673.469 72.5107 672.885 74.207 673.469 75.6755L677.305 84.8912C677.965 86.461 679.768 87.1446 681.318 86.461C684.823 84.9419 688.48 83.5494 692.341 82.3088C697.243 80.7138 702.221 79.9289 707.327 79.9289C713.55 79.9289 718.401 81.448 721.83 84.4862C725.259 87.5243 726.986 92.993 726.986 100.842V106.158L709.613 106.741C693.332 107.247 681.165 110.26 673.164 115.779C665.138 121.299 661.15 129.198 661.15 139.477C661.15 146.591 662.547 152.414 665.341 156.972C668.135 161.529 671.996 164.922 676.898 167.15C681.8 169.378 687.312 170.466 693.408 170.466C699.148 170.466 703.999 169.884 708.013 168.745C712.026 167.605 715.582 165.833 718.706 163.428C721.83 161.023 724.852 157.984 727.773 154.288L727.723 154.339ZM719.036 148.161C713.753 152.541 707.174 154.718 699.275 154.718C694.195 154.718 690.055 153.478 686.88 150.997C683.705 148.515 682.105 144.616 682.105 139.3C682.105 133.35 684.366 128.717 688.887 125.4C693.408 122.109 701.459 120.261 713.042 119.881L726.986 119.298V128.236C726.986 137.122 724.344 143.73 719.061 148.11L719.036 148.161Z" fill="white"/>
<path d="M16.7636 156.314C44.2967 172.998 81.7356 179.657 113.587 175.201C133.957 172.112 153.896 165.099 172.183 155.655C176.958 152.769 183.308 154.415 185.899 159.402C189.531 166.972 183.943 171.479 178.305 175.226C166.875 183.227 154.429 189.531 141.247 194.265C98.1437 210.469 40.8169 204.468 5.48621 173.403C4.62263 172.593 3.98764 171.96 2.84466 170.77C-5.61338 161.149 6.62919 148.617 16.789 156.288L16.7636 156.314Z" fill="white"/>
<path d="M37.3378 32.3056C54.9651 14.583 79.628 5.59507 103.885 1.82268C144.016 -4.8866 185.925 7.19011 217.852 31.6473C226.894 39.0149 217.725 52.9904 207.362 47.7749C182.979 35.1412 155.623 26.4571 127.989 26.4065C106.018 26.9382 83.7427 31.0903 63.6771 40.1036C58.8766 42.2809 54.1269 45.0153 49.6566 47.7243C39.6746 53.5221 29.4386 40.5846 37.3632 32.2803L37.3378 32.3056Z" fill="white"/>
<path d="M54.9398 113.551C60.3499 89.7774 79.0185 78.6121 102.361 85.0935C115.594 88.0304 128.471 96.1575 141.044 97.0437C147.14 96.993 149.375 91.3218 152.626 85.8278C158.748 74.8904 175.41 81.4984 172.463 93.5498C168.272 112.766 153.16 125.754 132.434 122.134C124.001 120.868 115.594 117.501 108.355 114.564C101.218 111.779 92.7089 107.93 86.105 108.209C80.1107 108.538 77.2152 114.437 74.0656 120.032C68.7825 131.375 52.0443 125.602 54.9144 113.526L54.9398 113.551Z" fill="white"/>
</g>
<defs>
<clipPath id="clip0_187_334">
<rect width="747" height="203" fill="white"/>
</clipPath>
</defs>
</svg>
