<svg width="100" height="32" viewBox="0 0 100 32" fill="none" xmlns="http://www.w3.org/2000/svg">
<g clip-path="url(#clip0_564_21395)">
<path d="M0.866211 23.5568V11.1684C0.866211 5.48447 5.42597 0.876709 11.0507 0.876709C16.6755 0.876709 21.2352 5.48447 21.2352 11.1684C21.2352 16.234 18.3152 18.6835 13.5458 19.5399C12.5658 19.7158 11.7522 18.8836 11.7522 17.8778C11.7522 16.8721 12.574 16.0818 13.5329 15.8122C16.3211 15.0282 17.6677 14.2095 17.6783 11.1445C17.6655 7.45661 14.7032 4.47103 11.0507 4.47103C7.39037 4.47103 4.42307 7.46956 4.42307 11.1684V23.5568C4.42307 25.714 6.15357 27.4626 8.28822 27.4626C9.80628 27.4626 10.3711 26.9642 11.0033 25.6776C11.4401 24.7886 12.2007 23.9428 13.1829 23.9428C14.1651 23.9428 14.9833 24.759 14.7509 25.7234C13.9599 29.006 11.7801 31.0571 8.28822 31.0571C4.18915 31.0571 0.866211 27.6991 0.866211 23.5568Z" fill="#163634"/>
<path d="M83.0259 11.2112C83.3112 11.2112 83.6194 11.2265 83.9541 11.2534C84.1101 11.2649 84.2508 11.2841 84.3839 11.3033C84.616 11.3379 84.7759 11.5491 84.7493 11.7833L84.5095 13.7838C84.4792 14.0257 84.2584 14.1985 84.0227 14.1563C83.9047 14.1371 83.7792 14.1179 83.6536 14.0987C83.3684 14.0603 83.064 14.0411 82.7368 14.0411C82.2043 14.0411 81.6792 14.1524 81.1658 14.3713C80.6521 14.594 80.1956 14.905 79.7924 15.3082C79.3891 15.7113 79.0733 16.2143 78.8337 16.8095C78.5941 17.4047 78.4762 18.0997 78.4762 18.8868V26.6238C78.4762 26.8618 78.2859 27.0538 78.0502 27.0538H75.8703C75.6344 27.0538 75.4443 26.8618 75.4443 26.6238V11.933C75.4443 11.695 75.6344 11.503 75.8703 11.503H77.4757C77.6887 11.503 77.8675 11.6604 77.898 11.8716L78.2441 14.2753H78.3887C78.693 13.7185 79.0733 13.204 79.5337 12.7317C79.9902 12.2594 80.5151 11.8908 81.1049 11.622C81.6946 11.3533 82.3335 11.2189 83.0184 11.2189L83.0259 11.2112Z" fill="#163634"/>
<path d="M43.2917 24.5696C43.1815 24.3506 42.9265 24.2469 42.6945 24.3237C42.3826 24.4273 42.0744 24.5157 41.7739 24.5849C41.0131 24.769 40.1458 24.8574 39.1718 24.8574C37.7224 24.8574 36.6003 24.435 35.7975 23.5866C35.0176 22.7609 34.5992 21.586 34.5421 20.0616C34.5421 20.004 34.5878 19.9503 34.6488 19.9503H43.9575C44.4711 19.9503 44.8895 19.5279 44.8895 19.0095V18.2454C44.8895 16.8017 44.6308 15.5538 44.1172 14.494C43.6036 13.4381 42.8542 12.6241 41.8728 12.0558C40.8912 11.4875 39.7235 11.2034 38.3692 11.2034C37.0148 11.2034 35.7594 11.5259 34.7096 12.171C33.6596 12.8161 32.8531 13.7453 32.2787 14.9548C31.7081 16.1681 31.4189 17.6388 31.4189 19.3705C31.4189 21.1022 31.7386 22.5919 32.3776 23.7862C33.0168 24.9803 33.9031 25.8673 35.0367 26.4547C36.1705 27.0423 37.4789 27.3341 38.9663 27.3341C40.0696 27.3341 41.0131 27.2457 41.7967 27.073C42.4319 26.931 43.0672 26.7351 43.7025 26.4777C43.9384 26.3817 44.0412 26.0977 43.9309 25.8673L43.288 24.5617L43.2917 24.5696ZM35.7709 14.6476C36.4176 13.9373 37.2964 13.5802 38.3997 13.5802C39.1796 13.5802 39.8224 13.7568 40.3283 14.1139C40.8343 14.471 41.2146 14.9471 41.4733 15.5423C41.7207 16.1144 41.8499 16.794 41.8575 17.5812C41.8575 17.6349 41.8157 17.681 41.7625 17.681H34.7475C34.6676 17.681 34.6031 17.608 34.6144 17.5274C34.7629 16.2949 35.1471 15.3349 35.7709 14.6515V14.6476Z" fill="#163634"/>
<path d="M49.1729 5.72798V26.6123C49.1729 26.8541 49.367 27.05 49.6066 27.05H51.7674C52.0071 27.05 52.201 26.8541 52.201 26.6123V5.25953C52.201 4.97922 51.9462 4.77188 51.6761 4.82948L49.5153 5.29793C49.3138 5.34016 49.1729 5.52061 49.1729 5.72798Z" fill="#163634"/>
<path d="M67.2921 5.37855C67.1021 5.42078 66.9651 5.58972 66.9651 5.78556V10.9538C66.9651 11.3186 66.9878 11.7679 67.0374 12.2939C67.083 12.8238 67.1172 13.2231 67.1363 13.4919H66.9917C66.6874 13.0695 66.3183 12.6855 65.8923 12.3361C65.4625 11.9906 64.964 11.7141 64.3934 11.5144C63.8228 11.3148 63.1343 11.2111 62.3354 11.2111C60.4677 11.2111 58.9648 11.8946 57.8313 13.2615C56.6977 14.6285 56.1309 16.6366 56.1309 19.2937C56.1309 21.9508 56.6938 23.9782 57.8161 25.326C58.9421 26.6737 60.4257 27.3457 62.2746 27.3457C63.0735 27.3457 63.7657 27.2381 64.3477 27.027C64.9298 26.8157 65.4358 26.5317 65.8618 26.1744C66.2917 25.8174 66.6568 25.418 66.9612 24.9766H67.0754L67.5129 26.739C67.5586 26.9233 67.722 27.0537 67.9122 27.0537H69.5785C69.8068 27.0537 69.9893 26.8657 69.9893 26.6391V5.30558C69.9893 5.04064 69.7458 4.84483 69.491 4.89857L67.2845 5.37855H67.2921ZM67.0525 19.7814C67.0525 21.4747 66.7521 22.7379 66.151 23.575C65.5499 24.412 64.5075 24.8306 63.0202 24.8306C61.7609 24.8306 60.8177 24.3583 60.1899 23.4176C59.5622 22.4769 59.2464 21.1291 59.2464 19.3782C59.2464 17.6273 59.5622 16.2526 60.1899 15.2505C60.8177 14.2521 61.7534 13.7492 62.9897 13.7492C64.5532 13.7492 65.6183 14.2291 66.1928 15.1929C66.7633 16.1567 67.0488 17.539 67.0488 19.3475V19.7814H67.0525Z" fill="#163634"/>
<path d="M96.2723 24.8884H96.3866C96.3866 24.8884 96.8924 26.7121 96.9457 26.8965C96.9989 27.0808 97.0942 27.0501 97.0942 27.0501L98.8059 26.6775C99.0152 26.6315 99.1634 26.4472 99.1634 26.2321V16.5177C99.1634 14.7092 98.6957 13.3768 97.7637 12.5205C96.8277 11.6643 95.4204 11.238 93.5333 11.238C92.4455 11.238 91.426 11.3648 90.4749 11.6143C89.6836 11.8217 88.9799 12.0751 88.3598 12.3746C88.1468 12.4783 88.0593 12.7355 88.1468 12.9582L88.7212 14.3559C88.8202 14.594 89.0901 14.6976 89.3223 14.594C89.8472 14.3636 90.395 14.1524 90.9732 13.9642C91.7074 13.7224 92.4531 13.6033 93.2178 13.6033C94.1496 13.6033 94.8762 13.8337 95.3898 14.2945C95.9035 14.7552 96.1621 15.5846 96.1621 16.7749V17.5813L93.56 17.6696C91.1217 17.7464 89.2994 18.2033 88.1011 19.0404C86.8989 19.8774 86.3018 21.0754 86.3018 22.6343C86.3018 23.7133 86.5111 24.5964 86.9295 25.2877C87.3479 25.9788 87.926 26.4932 88.6602 26.8312C89.3946 27.1691 90.2199 27.3342 91.1329 27.3342C91.9927 27.3342 92.7193 27.2458 93.3204 27.0731C93.9214 26.9002 94.4539 26.6315 94.9219 26.2668C95.3898 25.9021 95.8424 25.4411 96.2801 24.8807L96.2723 24.8884ZM94.9714 23.9514C94.1801 24.6157 93.1948 24.9458 92.0117 24.9458C91.2509 24.9458 90.6308 24.7577 90.1554 24.3814C89.6799 24.0051 89.4401 23.4137 89.4401 22.6074C89.4401 21.7051 89.7788 21.0025 90.4559 20.4995C91.1329 20.0003 92.339 19.72 94.0736 19.6624L96.1621 19.5741V20.9295C96.1621 22.2773 95.7665 23.2794 94.9751 23.9437L94.9714 23.9514Z" fill="#163634"/>
</g>
<defs>
<clipPath id="clip0_564_21395">
<rect width="100" height="32" fill="white"/>
</clipPath>
</defs>
</svg>
